<?xml version="1.0" standalone="no"?>
<!DOCTYPE svg PUBLIC "-//W3C//DTD SVG 20010904//EN"
 "http://www.w3.org/TR/2001/REC-SVG-20010904/DTD/svg10.dtd">
<svg version="1.0" xmlns="http://www.w3.org/2000/svg"
 width="512.000000pt" height="512.000000pt" viewBox="0 0 512.000000 512.000000"
 preserveAspectRatio="xMidYMid meet">

<g transform="translate(0.000000,512.000000) scale(0.100000,-0.100000)"
fill="#000000" stroke="none">
<path d="M2506 3665 c-56 -20 -1968 -1929 -1998 -1994 -41 -89 10 -194 108
-220 90 -24 37 -72 1032 922 l912 912 913 -912 c996 -995 941 -947 1032 -922
53 15 111 74 120 123 18 92 64 40 -988 1094 -535 535 -983 979 -997 987 -42
22 -92 26 -134 10z"/>
</g>
</svg>
